<svg  xmlns="http://www.w3.org/2000/svg" x="0px" y="0px" viewBox="0 0 49.5 36.1" style="enable-background:new 0 0 49.5 36.1;" xml:space="preserve"><g><g><path class="st0" d="M49.4,9.7c-0.2-0.1-0.3-0.2-0.5-0.4c-0.5-0.4-1.6-1.3-1.8-1.9c-0.1-0.1,0-0.1,0-0.2c0,0,0-0.1-0.1-0.1c-0.2-0.1-0.1-0.1-0.2,0c-0.6-0.5-0.8-1.4-1.2-2c-0.4-0.4-0.8-0.8-1.2-1.2c-0.3-0.5-0.1-0.9-0.4-1.4c0-0.1,0,0-0.2-0.1c0,0.1,0,0.2,0,0.2h0c0-0.1,0-0.1,0-0.2c-0.1-0.1-0.1-0.1-0.2-0.1c-0.4-0.2-0.9-0.4-1.2-0.8c-0.1-0.3-0.2-0.5-0.4-0.8V1h0C42,1.2,42,1.6,41.7,1.6c0,0.1,0,0,0,0.1c-0.1,0-0.1,0-0.2,0c0,0,0.1,0,0.1,0.1c0,0,0,0.1,0.1,0.1c-0.2,0-0.5-0.1-0.7-0.1c0,0.1,0,0.1-0.1,0.1C41,1.9,41,1.9,41.1,2c-0.1,0-0.2-0.1-0.3-0.1c0,0.1,0,0.1-0.1,0.2c0.2,0.1,0.3,0.1,0.5,0.2c-0.5-0.1-0.9-0.2-1.4-0.3c-0.1,0-0.1,0.1-0.2,0.1c0.1,0.1,0.3,0.1,0.4,0.2h0.1v0.1c-0.6-0.1-1.1-0.1-1.7-0.2c0.2,0.2,0.6,0.4,1.1,0.4c-0.4,0.1-0.8-0.2-1.3-0.2c0,0.1,0,0,0,0.1c-0.2,0-0.2,0-0.4,0.2c0,0,0.1,0.1,0.1,0.1c0,0-0.1,0-0.1,0c0,0.1,0.1,0.1,0.1,0.2c0,0,0,0.1,0,0.1c-0.1,0-0.2,0-0.3,0c0,0,0.1,0.1,0.1,0.1c-0.1-0.1-0.3-0.1-0.4-0.2c0.1,0.1,0.3,0.1,0.4,0.3c0.1,0.1,0.1,0.1,0.2,0.2c-0.5-0.1-0.9-0.2-1.4-0.4c0.4,0.4,1.1,0.4,1.5,0.8c-0.4-0.2-0.8-0.4-1.3-0.5c0.1,0.1,0.2,0.2,0.3,0.3c0,0,0,0,0,0.1c-0.2,0-0.7-0.1-0.8,0h-0.1c0,0,0.1,0.1,0.1,0.1c0,0,0,0.1,0,0.1C36,4.1,35.8,4,35.6,4c0.1,0.1,0.1,0.1,0.2,0.2v0c-0.1,0-0.1,0-0.2-0.1c0.2,0.5,0.6,0.6,0.9,0.9c-0.3-0.1-0.9-0.6-1.3-0.3l0,0c0.1,0,0.1,0,0.2,0.1c-0.1,0-0.3,0-0.4,0c0.1,0.1,0.2,0.2,0.3,0.3c-0.1,0.1-0.3,0-0.4,0c0,0,0,0-0.1,0c0.1,0.1,0.3,0.1,0.4,0.2v0.1c-0.7,0-0.9-0.2-1.5,0v0c0.1,0,0.1,0.1,0.2,0.1v0c-0.1,0.1-0.1,0.1-0.3,0.1C33.8,6,33.9,6,34,6.2c-0.1,0.1-0.2,0.1-0.4,0.2c0,0,0,0,0,0.1c0,0,0.1,0.1,0.1,0.1c-0.2,0.1-0.4-0.1-0.5-0.2c-0.1,0.1-0.1,0.3-0.1,0.4C33,6.8,33,6.8,32.8,6.8v0.2c-0.1,0-0.1,0-0.2,0.1c-0.1-0.3-0.5-0.4-0.9-0.5c-0.1,0.1-0.2,0.2-0.3,0.2c-0.4-0.2-1.1-0.3-1.6-0.2C30,5.6,30.2,4.8,30.5,4h0c0.1,0.2,0.3,0.5,0.4,0.7c0.1,0,0.2,0.1,0.3,0.1c0.2-0.3,0.5-0.3,0.6-0.6c0.1,0,0.1,0,0.3,0.1c0.1-0.2,0.2-0.3,0.2-0.5c0.4-0.2,0.3-0.5,0.5-0.8C32.9,3.1,33,3,33,3c0.2,0.1,0.4,0.3,0.6,0.3c0-2.2,0.1-3-2.1-3.3c-0.3,0.2-0.7,0.2-0.9,0.4c-0.2,0.4-0.5,0.8-0.7,1.1c0,0.1,0,0.1,0.2,0.2C30,1.9,30,2,30,2.1c-0.1-0.2-0.3-0.3-0.4-0.5c-1.8,0-6.1,1.2-6.9,2.2c-0.1,0.1-0.3,0.1-0.4,0.2c-0.4,0.2-0.9,0.5-1.1,0.9c-1,1.7,1.3,3.8,2.2,4.4C23.7,9.5,24,10,24.6,10c-0.1,0.2-1.9-0.5-2.3-0.6c-0.1,0.1-0.1,0.2-0.2,0.4c0.2,0.2,0.3,0.5,0.5,0.7c0,0,0,0.1,0,0.1c-0.6,0-2-0.2-2.1,0.3c-2.4-0.1-4.3-1.4-7-0.8c-1.2,0.3-2.4,0.9-3.2,1.7C10,12.1,9.8,13,9.4,13.2c-0.8,0.6-1.9,0.7-2.9,1.1c-1.4,0.6-2.9,1.3-4.3,1.9c-0.4,0.2-0.8,0.5-1.2,0.7c0,0,0,0,0,0.1c0.4-0.1,0.6-0.3,0.9-0.4c0.4-0.1,0.8-0.2,1.2-0.3c-0.2,0.2-0.5,0.3-0.8,0.4h0.2c-0.2,0.1-0.3,0.2-0.5,0.3c0,0,0,0,0,0.1c0.9-0.2,1.7-0.8,2.6-1c-0.8,0.6-1.9,0.8-2.8,1.4c-0.5,0.3-1.1,0.6-1.6,0.9c0,0-0.1,0.1-0.1,0.1c0.8-0.3,1.6-1,2.4-1v0c-0.6,0.3-1.2,0.6-1.8,0.9c0.3,0.1,1.9-0.8,2.3-1c-0.2,0.1-0.4,0.2-0.6,0.3c0.1,0,0.4-0.1,0.5-0.1c-0.6,0.7-2.2,0.7-2.6,1.4c0.6-0.2,1.2-0.6,1.9-0.7c-0.6,0.3-1.2,0.7-1.8,1c0.5-0.2,1-0.4,1.6-0.6c-0.2,0.1-0.4,0.2-0.6,0.3c0.1,0,0.1,0,0.2,0c-0.3,0.1-0.5,0.2-0.8,0.3c0.1,0,0.2,0,0.3,0c-0.2,0.1-0.4,0.2-0.6,0.3c0,0-0.1,0.2-0.3,0.2c0.5-0.1,0.9-0.2,1.4-0.2c-0.1,0.1-0.2,0.1-0.3,0.2c0.1,0,0.2,0,0.3-0.1c-0.3,0.2-0.6,0.4-1,0.6c0.1,0,0.3-0.1,0.4-0.1c-0.1,0.1-0.2,0.1-0.3,0.2c0,0,0,0.1,0,0.1c0.7-0.2,1.2-0.5,1.8-0.8c-0.1,0.1-0.3,0.3-0.5,0.3c0.1,0,0.3-0.1,0.4-0.2c-0.3,0.3-1,0.6-1.5,0.7c0.1,0.1,0.1,0,0.1,0.1C1.6,20.4,2,20.2,2.5,20c-0.2,0.2-0.6,0.3-0.8,0.5c0.1,0,0.2-0.1,0.3-0.1c0,0-0.1,0.1-0.1,0.1c0.2-0.1,0.5-0.2,0.7-0.3c-0.1,0.1-0.2,0.2-0.3,0.2c0.4,0.1,2-1.1,2.3-1.3c-0.1,0.1-0.3,0.2-0.4,0.3c0,0,0,0.1-0.1,0.1c0.1,0,0.1-0.1,0.2-0.1c-0.2,0.2-0.4,0.4-0.7,0.5c0,0,0,0.1-0.1,0.1C3.7,20,3.8,20,3.9,19.9c-0.2,0.2-0.3,0.3-0.5,0.5c0.1,0,0.1,0,0.2-0.1c-0.2,0.2-0.5,0.3-0.7,0.5c0,0,0,0.1-0.1,0.1c0.3-0.2,0.7-0.4,1-0.6c0.5-0.3,0.9-0.6,1.4-0.9c0.3-0.3,0.6-0.7,0.9-1c0.7-0.9,1.6-1.9,2.5-2.6c-0.1,0.9,0.8,3.3,1.2,4c0.1,0.1,0.3,0.1,0.4,0.2c0.2,0.3,0.4,0.7,0.6,1c-0.1,0.1-0.2,0.3-0.3,0.4c-1.3,0.4-3.3,0.1-4.5,0.1c-0.2,0.3-0.4,0.6-0.6,0.9c-0.1,0.4-0.2,0.8-0.3,1.2c-0.3,1.1-0.7,2.1-1,3.2c-0.2,0.5-0.3,1-0.5,1.5c0,0.2,0.1,0.3,0,0.5c0,0.1-0.1,0.1-0.1,0.1c-0.4-0.2-0.7-0.4-1.3-0.2c-0.6,0.2-0.5,1.4-0.5,2.3c0.1,0.1,0.3,0.2,0.4,0.2c0.6-0.4,2.1-1.2,2.4-1.7c0.2-0.6,0.4-1.2,0.7-1.9c0.4-1.2,0.8-2.6,1.4-3.7C7,24,7.4,24.1,7.7,24.1c1.1,0,2.1,0.1,3.2,0.1c0.6,0,1.2,0.1,1.8,0.1c0.8-0.4,1.6-0.7,2.3-1.1c0.3-0.5,0.6-1,0.9-1.4h0c0.2,0.2,0.5,0.5,0.7,0.7c-0.5,0.3-3.3,2.3-3.4,2.7c-0.1,0.6,0.5,1.2,0.8,1.5c0.8,0.8,2,1.2,2.9,1.8c0.6,0.4,1.3,0.8,1.9,1.1c0.1-0.1,0.1-0.1,0.2-0.2c-0.1,0.3-0.4,0.3-0.6,0.6c-0.1,0.2-0.2,0.4-0.3,0.6c0.1,0.6,0.8,0.8,1.2,1.1c-0.2,0.3-0.6,0.4-0.9,0.5c0,0-0.5,1-0.5,1.1c-0.5,0.3-1,0.2-1.6,0.5c0.2,0.8,0.6,1.4,0.9,2.1c0,0,0,0,0.1,0c0.9-0.5,1.1-1.7,1.7-2.5c0.2-0.2,0.7-0.4,1-0.6c1.1-0.8,2-1.9,3.5-2.4c0.1-0.1,0.2-0.2,0.3-0.3c0.2,0.3,0.5,0.6,0.9,0.6c0.6-0.1,1.1-0.1,1.7-0.2c0.6,0,1.3-0.1,1.9-0.1c0.2,0,0.3,0.1,0.5,0.1c0.3-0.1,0.7-0.2,1-0.3c0.5-1,0.2-2.6,0.4-3.9c0-0.5,0-1,0-1.6c0.2-0.2,0.5-0.5,0.7-0.7c1-1.3,2.7-2,3.7-3.3c0.4-0.5,0.8-1.4,0.9-2c0.1-0.4,0.2-0.9,0.3-1.3c0.7-0.8,1.3-1.6,2-2.5c0.3-0.6,0.6-1.2,0.9-1.8c0.6-1.1,1.5-2.2,1.9-3.5c0.2,0.1,0.4,0.2,0.6,0.3c0,0.2-0.1,0.3-0.1,0.5c0.1,0,0.2,0,0.3-0.1c0.1-0.1,0.1-0.2,0.2-0.3c0.5,0.1,1.1,0.2,1.6,0.3c0.3,0.1,0.6,0.2,0.9,0.3c0.1,0.1,0,0.1,0.1,0.2c0.3,0.1,0.6,0.1,0.9,0.2c0.8,0.3,1.7,1.2,2.5,1.3c0.5,0.1,1.2-0.4,1.6-0.5C49.2,11.2,49.8,10.4,49.4,9.7z M0.9,19.6L0.9,19.6c0.2-0.1,0.4-0.2,0.5-0.2h0.1C1.4,19.4,1.2,19.5,0.9,19.6z M24,27.1c-0.2,0.3-0.4,0.5-0.6,0.8c-0.5,0.3-1,0.2-1.3,0.6c0.1,0.1,0.2,0.2,0.3,0.3c-0.2,0.2-0.2,0.4-0.4,0.7c-0.6,0.6-1.2,1.1-1.7,1.7c0-0.8-0.1-1.5-0.1-2.3c-0.3-0.6-2.7-1.8-3.4-2.3C16.4,26.4,16,26,15.5,26V26c1.1-0.4,2.3-1.6,3.2-2.3c0.4-0.3,0.8-0.6,1.2-0.9c0.3-0.5,0.5-1,0.8-1.5c0.9,0.4,1.8,1,3,1.2c0,0.1,0.1,0.2,0.1,0.3c0.3,0.4,1.1,0,1.4,0c0.2,0.1,0.5,0.1,0.7,0.2C25.5,24.8,24.8,25.9,24,27.1z M24.4,29.9c0,0,0-0.1,0-0.1c1-1.3,2.7-1.9,3.5-3.3c0.3,0.3,0.2,1.1,0.4,1.6c0.2,0.4,0.3,0.7,0.5,1.1C27.4,29.4,25.8,29.7,24.4,29.9z M30.8,8.9L30.8,8.9c0-0.1,0.1-0.1,0.1-0.2h0.1c0,0,0,0,0,0.1C30.9,8.8,30.8,8.8,30.8,8.9z M31.1,8.3c-0.2,0.3-0.3,0.6-0.7,0.5c0,0.1,0,0.1-0.1,0.2c0,0,0.1,0.1,0.1,0.1c-0.2,0.1-0.3,0.1-0.5,0.1c0,0.2,0,0.1,0.1,0.2v0c-0.1,0-0.3,0-0.3,0.1h-0.1c0.1,0,0.2,0.1,0.3,0.1c-0.1,0-0.2,0-0.2,0c0.1,0.2,0.2,0.2,0.3,0.4c-0.1,0.1-0.2,0.1-0.2,0.2c-0.4,0-0.9,0-1.3,0v-0.1c-0.1,0-0.3,0.1-0.4,0.1c0.3-0.9-1.7-2.8-2.3-3.4c0,0,0,0-0.1,0c0.6,0,1.3-0.1,1.9-0.1c0.1,0.3,0.3,0.6,0.4,0.8c0,0.1,0,0.3,0,0.4C28,8.1,30.5,8.2,31.1,8.3L31.1,8.3z M31.5,8.3C31.5,8.3,31.4,8.3,31.5,8.3C31.4,8.3,31.4,8.3,31.5,8.3L31.5,8.3L31.5,8.3z M31.5,8.2c0,0,0.1-0.1,0.1-0.1c0.1,0,0.2,0,0.2,0.1c0,0,0,0,0,0.1H31.5z M32.8,7.6c-0.1,0-0.1,0-0.2,0c0,0,0,0,0-0.1C32.7,7.5,32.8,7.5,32.8,7.6L32.8,7.6z M38.5,3.2c0.2,0,0.5,0.1,0.7,0.1C39.1,3.4,38.7,3.3,38.5,3.2z" /></g></g></svg>