<svg xmlns="http://www.w3.org/2000/svg" viewBox="0 0 46.89 46.89">
  <g id="LottoLoot" data-name="LottoLoot">
    <path class="cls-1" d="M37.51,0H9.38A9.39,9.39,0,0,0,0,9.38v.78a.81.81,0,0,0,.06.31h0l5,11.41H2.45a2.34,2.34,0,0,0-1.71.74,2.4,2.4,0,0,0-.63,1.76L1.47,44.7a2.34,2.34,0,0,0,2.34,2.19H43.08a2.34,2.34,0,0,0,2.34-2.19l1.36-20.32a2.4,2.4,0,0,0-.63-1.76,2.34,2.34,0,0,0-1.71-.74H41.83l5-11.39a.88.88,0,0,0,.07-.33V9.38A9.39,9.39,0,0,0,37.51,0ZM14.07,1.56H32.82a10.53,10.53,0,0,1,5.85,1.57H8.22A10.51,10.51,0,0,1,14.07,1.56Zm-7.38,3a.8.8,0,0,0,.38.1H39.82a.8.8,0,0,0,.38-.1,5.68,5.68,0,0,1,.86,1.66H5.83A5.68,5.68,0,0,1,6.69,4.59Zm-1.22,4a6.85,6.85,0,0,1,0-.79H41.38a6.85,6.85,0,0,1,0,.79v.78H5.47ZM6.63,28.13H18v.79a5.73,5.73,0,0,0,.53,2.34H6.83Zm27.11-8.06-2.18,1.81h-2.7l.82-4.22Zm-2.6-3.36,1.66-.43.64.38.43,1.67Zm-1.9-1.12-1.69-1,1.66-.42,1.69,1Zm-1,1.23-.95,4.91-.79-5.94Zm-.9,6.63v5.47a3.86,3.86,0,0,1-.94,2.54.69.69,0,0,0-.11.13,3.93,3.93,0,0,1-5.71,0,.69.69,0,0,0-.11-.13,3.86,3.86,0,0,1-.94-2.54V23.45ZM21,21.88l.52-2.8a.81.81,0,0,0-.26-.74l-2-1.68A23.53,23.53,0,0,1,25,16.53l.71,5.35Zm-1.26-1.75-.33,1.75H17.8L18,20.73Zm-2.24-.87-1.18-1,.23-1.86.41.35.1.08,2.15,1.84Zm-1,1.19-.26,1.43H13.37l-.27-.23.32-1.77,1.7-.6ZM14.8,17.74l-2,.71-1.29-1.19L15,16Zm-2.94,2-.3,1.62-1.48.52h-.2l.63-3.39Zm27.57,20.9h-32l-.21-3.13H39.64ZM39.74,36H7.15l-.21-3.13H19.62a5.44,5.44,0,0,0,7.65,0H40Zm.31-4.69H28.39a5.73,5.73,0,0,0,.53-2.34v-.79H40.26Zm-3.23-9.38H34l1.16-1Zm-1.47-4.09,1.68,1,.43,1.66-1.69-1Zm4.78,4.09h-.68l-1-3.8a.8.8,0,0,0-.3-.44l-.07,0-4.78-2.83-.06,0-.54-.31h0l-3-1.76a.77.77,0,0,0-.29-.1h-.08a.78.78,0,0,0-.26,0l-3.77,1a.78.78,0,0,0-.58.64.67.67,0,0,0,0,.2h0l.07.54a25.55,25.55,0,0,0-7.09.4l-1.28-1.09a.77.77,0,0,0-.77-.14l-5.94,2.1a.73.73,0,0,0-.36.26l0,0v0a.7.7,0,0,0-.12.34l-.93,5H6.76L2,10.94H44.91Z"/>
    <path class="cls-1" d="M22.66,29.56v.92a.79.79,0,0,0,1.57,0v-.92a2.35,2.35,0,1,0-1.57,0Zm.78-3a.78.78,0,1,1-.78.78A.78.78,0,0,1,23.44,26.57Z"/>
  </g>
</svg>