<svg xmlns="http://www.w3.org/2000/svg" x="0px" y="0px" viewBox="0 0 67.5 18.1" style="enable-background:new 0 0 67.5 18.1;" xml:space="preserve"><path class="st0" d="M64.6,14.5c1,0.4,2.9,0.7,2.9,1.6c0,0.6-1.1,1.1-1.8,1.1c-0.7,0-1.4-0.3-1.9-0.5c-0.7-0.2,0.9,0.7,0.4,1.1c-0.9,0.6-2-0.2-2.8-0.4c-0.2-1-0.8-1.6-1.4-2.3c-2-0.2-4.5-0.2-6.9,0c-1.9,0.1-3.6,0.6-4.8,0c-0.6-0.3-0.8-0.9-1.3-1.4c-0.4-0.4-1-0.7-1.3-1.3c-1.9,0.8-4.5,1.1-6.2,0.4c-0.8-0.4-1.5-1.1-2.1-1.6c-1-0.8-2.1-1.7-3.5-2c-0.4-0.1-0.8,0.1-1.1,0c-0.7-0.1-1.6-0.5-2.8-0.4c-1.2,0.1-2.5,0.6-3.4,1.1c-1.1,0.7-1.9,2.2-3.2,2.9c-0.5,0.3-1.2,0.6-1.8,0.8c-0.8,0.2-1.5-0.1-2.4,0c-0.6,0.1-1.1,0.6-1.8,0.8c-2.2,0.5-4.6-0.1-6.8-0.6c-1.1,0.7-5.7,2.7-5.6-0.5c1-0.6,2.2,0.3,3.2-0.3c-2.3-1.3-5.1,0.9-7.4,0c-0.5-0.6-1.3-1.2-0.9-2.4c1.1-0.5,1.6,0.6,2.7,0.6c0.7,0,1.4-0.5,2.3-0.6c0.6-0.1,1.5-0.2,2.3-0.3c1.9-0.2,2.9-0.2,4,0.6c0.6-0.6,1-1.3,1.9-1.5c2.6,1.3,3.4-0.5,4.5-2.3c0-0.1-0.1-0.3,0-0.4c0.6-0.6,1.6-1.6,2.3-2.3c-4.8,0.2-8.4,2.2-13.6,1.5c-0.8-0.7-2.9-1.1-2-2.7c1.5,0.1,2.1,1.3,3.9,1.4C10,5,12.4,4.2,14.9,3.8c1.1-0.2,2.2-0.4,3.3-0.6c1.2-0.2,2.4-0.3,3.4-0.5c0.5-0.1,0.9-0.4,1.4-0.5c0.4-0.1,0.9,0,1.3,0c0.6-0.1,1.2-0.3,1.8-0.4c1-0.1,2.1,0.1,3.2,0.1c0.9,0,1.8-0.3,2.7-0.4c0.6,0,1.2,0.1,1.8,0c1.2-0.1,2.7-0.8,4-1c2-0.3,4.5-0.7,7.1-0.4c1.4,0.2,2.6,0.9,4.2,1c1.7,0.1,3.6-0.5,5.3-0.5c2.2,0,3.5,1,5.4,1.9c0.6,0.8,1,1.5,2,2.3c0.8,0.6,2.6,1.1,2.7,2.1c0.1,1.1-1.4,1.8-2.9,1.6c-0.8-0.1-1.6-0.5-2.7-0.6c-1.2-0.2-2.4,0-3.3-0.3c-0.8-0.2-1.4-1-2-1.1c-1.1-0.2-2.3,0.3-2.7,1c0.3,1.4-0.1,2.6,0.6,3.4c0.5,0.5,1.9,0.6,3,0.8c1.2,0.2,2.3,0.2,3.4,0.4c1.6,0.2,2.5,1,3.7,0.9C62.2,13.3,63.3,13.9,64.6,14.5z" /></svg>
