<svg width="46" height="50" viewBox="0 0 46 50" fill="none" xmlns="http://www.w3.org/2000/svg">
<g clip-path="url(#clip0_2_2)">
<path d="M0.550001 19.86C0.575034 19.9043 0.595153 19.9513 0.610001 20C0.826158 21.0353 1.16174 22.0421 1.61 23C1.71043 23.2195 1.8345 23.4274 1.98 23.62C2.2 23.9267 2.43 24.23 2.67 24.53C3.21196 25.2274 3.86381 25.832 4.6 26.32C5.14053 26.6959 5.70883 27.0302 6.3 27.32C6.5113 27.415 6.70165 27.5509 6.86 27.72C7.16957 28.0339 7.56706 28.2466 8 28.33C8.05922 28.3437 8.12078 28.3437 8.18 28.33C9.18327 28.0822 10.221 28.0044 11.25 28.1C12.2746 28.1616 13.2755 28.4339 14.19 28.9C14.6127 29.097 15.0929 29.1326 15.54 29C15.62 29 15.71 28.87 15.75 28.78C16.1 28.02 16.44 27.26 16.75 26.5C16.7941 26.4092 16.8552 26.3278 16.93 26.26C16.3226 27.4472 15.8593 28.7028 15.55 30L15.07 29.77C15.1364 29.8534 15.2138 29.9274 15.3 29.99C15.3902 30.0354 15.4599 30.1131 15.4951 30.2077C15.5303 30.3023 15.5285 30.4067 15.49 30.5C14.8542 33.4773 15.108 36.5759 16.22 39.41C16.57 40.25 17 41.05 17.39 41.86C17.44 41.97 17.48 42.06 17.39 42.18C16.659 43.1301 15.7526 43.9312 14.72 44.54C13.3068 45.3705 11.6876 45.7844 10.0492 45.7339C8.41088 45.6834 6.82021 45.1706 5.46088 44.2546C4.10156 43.3386 3.02901 42.0569 2.36708 40.5573C1.70515 39.0578 1.48082 37.4016 1.72 35.78C1.98938 33.7052 2.98916 31.7943 4.54 30.39C4.84 30.11 4.83 30.11 4.54 29.78C3.72983 28.7898 3.02597 27.7173 2.44 26.58C1.50775 24.8246 0.891687 22.9189 0.620001 20.95C0.620001 20.65 0.540001 20.35 0.500001 20.05C0.496582 19.9934 0.496582 19.9366 0.500001 19.88L0.550001 19.86ZM11.07 30.86C11.0393 30.7966 11.0025 30.7363 10.96 30.68C10.62 30.34 10.29 29.97 9.96 29.68C9.75548 29.4911 9.49686 29.3712 9.22058 29.3371C8.9443 29.3031 8.66429 29.3565 8.42 29.49L8.27 29.54C7.07709 29.9807 6.03582 30.7547 5.27 31.77C5.12 31.97 5.15 31.99 5.36 32.1C5.88 32.3667 6.39 32.6433 6.89 32.93C7.16 33.08 7.18 33.1 7.4 32.87C8.35546 31.9023 9.57734 31.2409 10.91 30.97C10.9637 30.9274 11.0138 30.8806 11.06 30.83L11.07 30.86ZM8.7 32.45C8.48855 32.4472 8.28441 32.5273 8.13118 32.673C7.97796 32.8188 7.88782 33.0187 7.88 33.23C7.88259 33.3167 7.90223 33.402 7.93781 33.4811C7.9734 33.5602 8.02421 33.6315 8.08737 33.6909C8.15052 33.7504 8.22476 33.7968 8.30586 33.8275C8.38696 33.8582 8.47332 33.8727 8.56 33.87C8.66458 33.8727 8.76864 33.8545 8.86616 33.8166C8.96367 33.7787 9.05268 33.7219 9.12804 33.6493C9.20339 33.5767 9.26358 33.4899 9.30512 33.3939C9.34666 33.2979 9.36871 33.1946 9.37 33.09C9.37311 33.0025 9.35767 32.9154 9.32469 32.8343C9.29171 32.7532 9.24194 32.6801 9.17865 32.6196C9.11536 32.5592 9.03998 32.5128 8.95749 32.4836C8.87499 32.4543 8.78724 32.4429 8.7 32.45Z" fill="#717171"/>
<path d="M20.6 45.71L20.88 45.85C22.0681 46.5678 23.4224 46.9641 24.81 47C25.9562 47.0347 27.1006 46.8862 28.2 46.56C28.34 46.56 28.51 46.56 28.66 46.56C29.0881 46.4567 29.5064 46.3161 29.91 46.14C30.63 45.78 31.34 45.39 32.02 44.97C32.6386 44.5905 33.233 44.173 33.8 43.72C34.4 43.24 34.96 42.72 35.52 42.16C35.9485 41.7687 36.3557 41.3548 36.74 40.92C37.18 40.41 37.57 39.86 37.96 39.31C38.35 38.76 38.54 38.45 38.8 38C38.8493 37.8574 38.8829 37.7099 38.9 37.56C38.97 37.35 39.04 37.14 39.13 36.94C39.28 36.58 39.47 36.23 39.59 35.86C39.71 35.49 39.76 35.05 39.87 34.65C39.98 34.25 40.11 33.95 40.24 33.65C40.37 33.35 40.47 33.13 40.58 32.87C40.69 32.61 40.72 32.6 40.78 32.46H40.86C40.923 32.5529 40.9735 32.6538 41.01 32.76C41.057 33.0281 41.0904 33.2985 41.11 33.57C41.11 34.01 41.27 34.12 41.7 34.06C42.4587 33.924 43.2318 33.887 44 33.95C44.3 33.95 44.37 33.95 44.38 33.61C44.3851 32.0709 44.1142 30.5434 43.58 29.1C43.1042 27.7324 42.4303 26.442 41.58 25.27C41.3878 25.0615 41.2534 24.8064 41.19 24.53H41.34H41.57C41.57 24.45 41.57 24.35 41.57 24.29C41.23 23.74 40.87 23.2 40.52 22.65L40.37 22.44C40.4589 22.5157 40.5524 22.5858 40.65 22.65C41.461 23.18 42.1442 23.8837 42.65 24.71C43.5866 26.0188 44.312 27.4664 44.8 29C45.2491 30.3629 45.4918 31.7853 45.52 33.22C45.5419 34.0948 45.5051 34.9701 45.41 35.84C45.2152 37.4321 44.7733 38.9841 44.1 40.44C43.2509 42.3084 42.0411 43.9906 40.54 45.39C39.0245 46.7985 37.2383 47.8838 35.29 48.58C33.9549 49.0619 32.5571 49.3482 31.14 49.43C29.7973 49.5056 28.4507 49.3911 27.14 49.09C25.4054 48.6986 23.7556 47.9974 22.27 47.02C21.73 46.66 21.27 46.24 20.71 45.85C20.6696 45.8136 20.6328 45.7734 20.6 45.73V45.71Z" fill="#717171"/>
<path d="M12.34 13.71C12.51 14.03 12.67 14.29 12.79 14.56C13.0811 15.2727 13.1542 16.0557 13 16.81C12.7145 17.9625 12.1669 19.0336 11.4 19.94C11.0525 20.4349 10.6309 20.8734 10.15 21.24C9.83169 21.5207 9.44566 21.7136 9.03003 21.7995C8.6144 21.8855 8.18354 21.8615 7.78 21.73C7.02739 21.4602 6.34423 21.0264 5.78 20.46C5.0793 19.8283 4.41174 19.1607 3.78 18.46C3.47134 18.0471 3.20972 17.601 3 17.13C2.71756 16.6778 2.51463 16.1807 2.4 15.66C2.28388 14.8827 2.3914 14.0884 2.71 13.37C3.09631 12.421 3.63694 11.5425 4.31 10.77C4.56775 10.4326 4.89885 10.1582 5.27826 9.96767C5.65767 9.7771 6.07545 9.67531 6.5 9.67C6.64 9.67 6.74 9.67 6.65 9.47C6.48538 9.17116 6.41012 8.83131 6.43317 8.49092C6.45621 8.15052 6.5766 7.82392 6.78 7.55C7.34131 6.6269 8.0508 5.80254 8.88 5.11C9.55007 4.48698 10.4253 4.1312 11.34 4.11C11.6172 4.12403 11.8921 4.16761 12.16 4.24C12.6366 4.34081 13.1073 4.46767 13.57 4.62C14.1693 4.83181 14.7568 5.07549 15.33 5.35C15.8015 5.5807 16.256 5.8447 16.69 6.14C17.1383 6.4403 17.5629 6.77462 17.96 7.14C18.3079 7.48133 18.5192 7.93795 18.5542 8.42407C18.5892 8.9102 18.4454 9.39237 18.15 9.78C18 10.01 15.92 13.33 14.44 13.56C13.9103 13.7446 13.342 13.7893 12.79 13.69C12.6397 13.6863 12.4894 13.693 12.34 13.71ZM10.16 14.91C10.1292 14.6513 10.0513 14.4005 9.93 14.17C9.5641 13.7431 9.15899 13.3513 8.72 13C8.17468 12.4921 7.54534 12.0827 6.86 11.79C6.72421 11.7161 6.56824 11.6879 6.41516 11.7095C6.26208 11.7311 6.12002 11.8014 6.01 11.91C5.31889 12.5691 4.78561 13.3759 4.45 14.27C4.37489 14.4737 4.35201 14.6931 4.38345 14.9079C4.41489 15.1228 4.49966 15.3263 4.63 15.5C4.80714 15.7819 5.01877 16.0406 5.26 16.27C5.82 16.8 6.38 17.34 6.99 17.82C7.13318 17.9598 7.31803 18.0491 7.51654 18.0743C7.71504 18.0996 7.91637 18.0595 8.09 17.96C8.53193 17.6622 8.91223 17.2819 9.21 16.84C9.51509 16.3946 9.77949 15.9227 10 15.43C10.0652 15.2606 10.1187 15.0868 10.16 14.91ZM14.68 8.41C14.6493 8.26226 14.588 8.12259 14.5 8C14.3055 7.78963 14.0795 7.61082 13.83 7.47C13.12 7.1 12.39 6.75 11.65 6.47C11.4999 6.38396 11.334 6.32899 11.1622 6.30837C10.9904 6.28776 10.8162 6.30191 10.65 6.35C10.3473 6.48085 10.0698 6.6636 9.83 6.89C9.56204 7.1593 9.32091 7.45402 9.11 7.77C8.91933 8.04041 8.74887 8.32452 8.6 8.62C8.52643 8.75127 8.5031 8.90481 8.53438 9.05201C8.56566 9.1992 8.6494 9.32999 8.77 9.42C8.94 9.58 9.13 9.71 9.31 9.86C10.0404 10.4866 10.8769 10.9776 11.78 11.31C11.9595 11.3823 12.1562 11.4009 12.3461 11.3637C12.5361 11.3264 12.7111 11.2348 12.85 11.1C13.3152 10.6782 13.7496 10.2237 14.15 9.74C14.4607 9.36258 14.646 8.89767 14.68 8.41Z" fill="#717171"/>
<path d="M29.59 31.48H26.07C25.77 31.48 25.73 31.48 25.75 31.14C25.77 30.8 25.75 30.57 25.81 30.28C25.8199 29.9443 25.8566 29.6099 25.92 29.28C26.1622 28.4509 26.563 27.6766 27.1 27C27.9874 25.7857 28.9563 24.633 30 23.55C30.53 23 31.08 22.48 31.61 21.94C31.6797 21.8622 31.7667 21.8018 31.8639 21.7636C31.9611 21.7254 32.066 21.7105 32.17 21.72L35.32 21.94C35.3686 21.9413 35.4165 21.9522 35.4609 21.972C35.5052 21.9918 35.5453 22.0201 35.5787 22.0554C35.6122 22.0907 35.6383 22.1322 35.6557 22.1776C35.6731 22.223 35.6813 22.2714 35.68 22.32C35.8 23.4 35.95 24.47 36.05 25.55C36.15 26.63 36.21 27.85 36.28 29.01C36.28 29.22 36.38 29.3 36.58 29.3H37.46C37.73 29.3 37.85 29.42 37.86 29.68C37.8933 30.2067 37.9233 30.7333 37.95 31.26C37.95 31.53 37.87 31.62 37.59 31.61H36.59C36.4 31.61 36.33 31.68 36.33 31.87C36.33 32.6767 36.33 33.4833 36.33 34.29C36.33 34.68 36.26 34.75 35.87 34.74H33.8C33.43 34.74 33.38 34.74 33.38 34.33C33.38 33.52 33.38 32.72 33.38 31.91C33.38 31.57 33.38 31.55 33.02 31.55H29.59V31.48ZM33.2 23.38L33.1 23.32C33.0698 23.3837 33.0329 23.444 32.99 23.5C32.41 24.15 31.81 24.79 31.23 25.5C30.23 26.65 29.23 27.81 28.28 28.97C28.2384 29.0478 28.2113 29.1325 28.2 29.22C28.2727 29.2548 28.3502 29.2784 28.43 29.29C28.73 29.29 29.03 29.29 29.34 29.29H33.04C33.38 29.29 33.4 29.29 33.39 28.93C33.3367 27.21 33.2833 25.49 33.23 23.77C33.23 23.58 33.21 23.48 33.2 23.38Z" fill="#717171"/>
<path d="M23.28 22.74C22.5981 22.7494 21.9224 22.871 21.28 23.1C20.3064 23.4201 19.4293 23.9808 18.73 24.73C18.571 24.8753 18.427 25.0361 18.3 25.21C18.0238 25.669 17.7734 26.1431 17.55 26.63C17.3349 27.1144 17.1512 27.6121 17 28.12C16.8758 28.5676 16.7756 29.0216 16.7 29.48C16.58 30.11 16.45 30.74 16.4 31.37C16.3124 32.0801 16.3428 32.7998 16.49 33.5C16.5251 33.69 16.6016 33.87 16.7139 34.0272C16.8262 34.1845 16.9717 34.3151 17.14 34.41C17.714 34.6843 18.3439 34.8212 18.98 34.81C19.949 34.8878 20.9239 34.7757 21.85 34.48C22.3754 34.3298 22.8383 34.0142 23.17 33.58C23.515 33.1157 23.7384 32.5726 23.82 32C23.89 31.53 23.99 29.56 23.98 29.05C24.0245 28.5469 23.9667 28.0401 23.81 27.56C23.31 26.47 21.04 26.74 20.98 26.75C20.4645 26.773 19.9591 26.9011 19.4948 27.1264C19.0305 27.3516 18.6172 27.6693 18.28 28.06C18.2752 28.0235 18.2752 27.9865 18.28 27.95C18.45 27.32 18.6 26.67 18.81 26.05C18.9225 25.6225 19.1852 25.2497 19.55 25C20.1802 24.5916 20.8886 24.3191 21.63 24.2C22.13 24.13 22.31 24.29 22.31 24.79C22.3164 24.8599 22.3164 24.9301 22.31 25C22.31 25.2 22.31 25.24 22.54 25.21L24.16 25C24.1988 24.9884 24.2345 24.9679 24.264 24.9402C24.2935 24.9124 24.3161 24.8781 24.33 24.84C24.3763 24.5087 24.3996 24.1745 24.4 23.84C24.4163 23.6898 24.3984 23.5379 24.3476 23.3956C24.2967 23.2534 24.2143 23.1245 24.1066 23.0186C23.9988 22.9127 23.8684 22.8327 23.7253 22.7844C23.5821 22.7362 23.4299 22.721 23.28 22.74ZM18.62 29.09C18.8449 28.9874 19.0794 28.907 19.32 28.85C19.94 28.69 21.32 28.41 21.69 28.72C22.06 29.03 21.84 29.72 21.82 29.88C21.73 30.41 21.64 30.95 21.53 31.48C21.5221 31.7076 21.4423 31.9269 21.3022 32.1065C21.1621 32.2862 20.9689 32.4169 20.75 32.48C19.9627 32.697 19.1399 32.7548 18.33 32.65C18.1 32.65 17.87 32.52 17.84 32.26C17.792 31.8851 17.7653 31.5079 17.76 31.13C17.7641 30.9117 17.7875 30.6942 17.83 30.48C17.8254 30.1975 17.8962 29.9189 18.035 29.6728C18.1739 29.4267 18.3758 29.2221 18.62 29.08V29.09Z" fill="#717171"/>
<path d="M34.65 11.29C35.7141 13.837 36.1761 16.5953 36 19.35C35.9502 19.3556 35.8998 19.3556 35.85 19.35L34.67 18.93C34.54 18.93 34.51 18.84 34.52 18.67C34.5229 18.0981 34.4862 17.5268 34.41 16.96C34.41 16.64 34.07 16.46 33.82 16.27C33.57 16.08 33.58 16.02 33.67 15.72C33.76 15.42 33.85 14.91 33.93 14.5C33.93 14.42 33.93 14.35 33.99 14.27C34.05 14.19 34.14 14.38 34.17 14.45C34.38 15.08 34.59 15.71 34.79 16.34C34.85 16.52 34.88 16.7 34.93 16.88C34.98 17.06 35 17 35 17C35 17 35.09 16.91 35.09 16.85C35.09 16.39 35.21 15.93 35.21 15.46C35.2225 14.4728 35.1082 13.4881 34.87 12.53C34.78 12.18 34.67 11.83 34.58 11.48C34.5762 11.4167 34.5762 11.3533 34.58 11.29H34.65Z" fill="#717171"/>
<path d="M31 18.22C27.4291 18.0971 23.9274 19.2254 21.1 21.41L21 21.33L21.18 21.23C22.2523 20.4158 23.4254 19.7436 24.67 19.23C25.19 19.03 25.67 18.82 26.24 18.67C26.7283 18.5228 27.2262 18.4092 27.73 18.33C28.42 18.22 29.12 18.16 29.82 18.08C30.0487 18.045 30.279 18.0217 30.51 18.01C30.6656 18.0218 30.8196 18.0486 30.97 18.09L31 18.22Z" fill="#717171"/>
<path d="M30.49 5.34L31.49 6.34C31.28 6.34 30.48 5.6 30.49 5.34Z" fill="#717171"/>
<path d="M15.58 35.76C15.5593 35.6949 15.5593 35.6251 15.58 35.56L14.81 35.42C14.8583 35.6476 14.8917 35.8781 14.91 36.11L15.6 36.22C15.5615 36.0697 15.5547 35.9131 15.58 35.76Z" fill="#717171"/>
<path d="M35 11.12C33.9646 8.67254 32.406 6.48136 30.4338 4.70026C28.4615 2.91917 26.1233 1.59134 23.5833 0.809972C21.0433 0.0286037 18.363 -0.187362 15.7307 0.177234C13.0984 0.54183 10.5777 1.47815 8.34571 2.92047C6.11371 4.3628 4.22443 6.27616 2.8105 8.52627C1.39657 10.7764 0.492263 13.3087 0.161048 15.9454C-0.170168 18.5822 0.0797384 21.2595 0.893225 23.7894C1.70671 26.3193 3.06406 28.6405 4.87 30.59C5.03208 30.4384 5.20973 30.3043 5.4 30.19C3.44151 28.1021 2.02349 25.5669 1.26957 22.8052C0.515649 20.0436 0.448718 17.1395 1.07461 14.3461C1.70051 11.5527 3.00022 8.95479 4.86044 6.77891C6.72066 4.60302 9.08491 2.91521 11.747 1.86264C14.4092 0.81006 17.2884 0.424675 20.1336 0.740081C22.9789 1.05549 25.7038 2.06211 28.0708 3.67218C30.4377 5.28225 32.3749 7.44689 33.7134 9.97736C35.0519 12.5078 35.7511 15.3273 35.75 18.19C35.75 18.67 35.73 19.1433 35.69 19.61C35.89 19.6833 36.0867 19.7667 36.28 19.86C36.3333 19.3 36.36 18.74 36.36 18.18C36.3836 15.7594 35.9211 13.3586 35 11.12Z" fill="#717171"/>
<path d="M17.76 42C17.6533 41.8533 17.55 41.7 17.45 41.54C16.4783 43.1018 15.0251 44.3052 13.3096 44.9689C11.5941 45.6326 9.70933 45.7205 7.93952 45.2194C6.16971 44.7182 4.61083 43.6552 3.49798 42.1906C2.38512 40.7261 1.77864 38.9394 1.77 37.1C1.77167 35.847 2.05362 34.6103 2.59521 33.4804C3.13679 32.3505 3.92429 31.3561 4.9 30.57C5.05089 30.431 5.21501 30.3071 5.39 30.2C6.92838 29.1291 8.7779 28.5975 10.6501 28.6879C12.5223 28.7783 14.312 29.4858 15.74 30.7C15.7211 30.6347 15.7211 30.5653 15.74 30.5C15.7889 30.3669 15.8257 30.2297 15.85 30.09C15.8459 30.0601 15.8459 30.0299 15.85 30C14.4193 28.8634 12.6786 28.1854 10.8561 28.0549C9.03348 27.9243 7.21397 28.3474 5.63589 29.2685C4.0578 30.1896 2.79473 31.5659 2.01213 33.2171C1.22953 34.8682 0.963891 36.7173 1.25002 38.522C1.53615 40.3267 2.3607 42.0029 3.61566 43.331C4.87062 44.6591 6.49746 45.5772 8.28307 45.9651C10.0687 46.3529 11.9298 46.1923 13.6226 45.5044C15.3154 44.8166 16.761 43.6334 17.77 42.11L17.76 42Z" fill="#717171"/>
<path d="M41.3 22.56C39.8761 21.0791 38.1679 19.901 36.2777 19.0963C34.3876 18.2916 32.3544 17.8767 30.3 17.8767C28.2456 17.8767 26.2124 18.2916 24.3223 19.0963C22.4321 19.901 20.7239 21.0791 19.3 22.56C16.378 25.5921 14.7453 29.6391 14.7453 33.85C14.7453 38.0609 16.378 42.1079 19.3 45.14C20.7239 46.6209 22.4321 47.799 24.3223 48.6037C26.2124 49.4084 28.2456 49.8233 30.3 49.8233C32.3544 49.8233 34.3876 49.4084 36.2777 48.6037C38.1679 47.799 39.8761 46.6209 41.3 45.14C44.222 42.1079 45.8547 38.0609 45.8547 33.85C45.8547 29.6391 44.222 25.5921 41.3 22.56ZM30.3 49.16C26.7222 49.1152 23.2774 47.7971 20.5835 45.4422C17.8896 43.0873 16.1228 39.8497 15.6 36.31C15.5716 36.2018 15.5716 36.0882 15.6 35.98C15.3589 34.2022 15.4232 32.3962 15.79 30.64C15.787 30.6134 15.787 30.5866 15.79 30.56C16.4763 27.197 18.2952 24.1711 20.9431 21.9872C23.591 19.8034 26.9078 18.5937 30.34 18.56C34.3319 18.631 38.1338 20.277 40.9173 23.1392C43.7008 26.0014 45.2402 29.8477 45.2 33.84C45.2508 37.8443 43.712 41.7054 40.9209 44.5771C38.1298 47.4488 34.3141 49.0968 30.31 49.16H30.3Z" fill="#717171"/>
</g>
<defs>
<clipPath id="clip0_2_2">
<rect width="45.86" height="49.81" fill="white"/>
</clipPath>
</defs>
</svg>
