<svg  xmlns="http://www.w3.org/2000/svg" x="0px" y="0px" viewBox="0 0 50 50" style="enable-background:new 0 0 50 50;" xml:space="preserve"><g><path d="M24.5,0C11,0.3-0.3,11.4,0,25.7C0.3,39.1,11.4,50.2,25.4,50C39.2,49.7,49.9,38.6,50,25C49.9,10.9,38.4-0.2,24.5,0zM25,45.6C13.6,45.6,4.4,36.4,4.4,25C4.5,13.5,13.7,4.4,25,4.4C36.7,4.4,45.6,14,45.6,25C45.6,36.1,36.6,45.6,25,45.6z"/><path d="M38.2,25.4c0.2-7.6-5.9-13.5-13.1-13.5c-7.3,0-13.2,5.9-13.2,13.2c0,7.3,5.8,13.1,13.1,13.2C32,38.2,38,32.6,38.2,25.4zM25,33.8c-4.9,0-8.8-3.9-8.8-8.8c0-4.9,3.9-8.8,8.8-8.9c4.8,0,8.8,4,8.8,8.7C33.8,29.9,30,33.8,25,33.8z"/><path d="M13.8,33.8c-1.4,1.1-2.8,2.2-4.3,3.3c0.7,0.8,1.4,1.5,2.2,2.3c1.3-1.4,2.4-2.7,3.7-4C14.8,34.9,14.3,34.3,13.8,33.8z"/><path d="M17.2,13.1c-1-1.5-2-3-3-4.5c-0.9,0.7-1.7,1.3-2.5,2c1.3,1.4,2.5,2.7,3.7,4C16,14,16.5,13.6,17.2,13.1z"/><path d="M13.7,16.3c-1.4-1.1-2.8-2.2-4.3-3.3c-0.6,0.9-1.2,1.8-1.7,2.7c1.6,0.9,3.2,1.7,4.7,2.6C12.9,17.5,13.3,16.9,13.7,16.3z"/><path d="M21.5,11.2C21,9.4,20.6,7.7,20.1,6c-1,0.3-2,0.7-3,1c0.7,1.7,1.5,3.3,2.2,5C20.1,11.7,20.8,11.4,21.5,11.2z"/><path d="M11.5,29.7c-1.7,0.6-3.4,1.1-5.1,1.7c0.4,1,0.9,1.9,1.3,2.9c1.6-0.9,3.2-1.7,4.8-2.6C12.1,31.1,11.8,30.4,11.5,29.7z"/><path d="M14.3,41.5c1,0.5,1.9,1,2.8,1.5c0.7-1.7,1.5-3.3,2.2-4.9c-0.7-0.4-1.4-0.7-2-1.1C16.3,38.4,15.3,39.9,14.3,41.5z"/><path d="M26.2,39.2c0.1,1.8,0.3,3.5,0.4,5.4c1.1-0.2,2.1-0.4,3.1-0.5c-0.5-1.8-0.9-3.5-1.3-5.2C27.7,39,27,39.1,26.2,39.2z"/><path d="M37.5,31.7c1.6,0.8,3.1,1.7,4.7,2.6c0.4-1,0.9-1.9,1.3-2.9c-1.7-0.6-3.4-1.2-5.1-1.7C38.1,30.4,37.9,31,37.5,31.7z"/><path d="M34.6,14.5c1.2-1.3,2.4-2.6,3.7-4c-0.8-0.7-1.7-1.3-2.5-2c-1,1.6-2,3-3,4.5C33.4,13.6,34,14,34.6,14.5z"/><path d="M37.5,18.2c1.6-0.9,3.1-1.7,4.7-2.6c-0.6-0.9-1.2-1.8-1.8-2.7c-1.5,1.1-2.9,2.2-4.3,3.3C36.7,16.9,37.1,17.5,37.5,18.2z"/><path d="M34.7,35.5c1.2,1.3,2.4,2.6,3.7,4c0.7-0.8,1.4-1.6,2.2-2.3c-1.5-1.1-2.8-2.2-4.3-3.3C35.7,34.3,35.2,34.9,34.7,35.5z"/><path d="M30.8,38c0.7,1.6,1.4,3.3,2.2,4.9c1-0.5,1.9-1,2.8-1.5c-1-1.6-2-3-3-4.5C32.1,37.3,31.4,37.7,30.8,38z"/><path d="M32.9,7c-1-0.4-2-0.7-3-1c-0.4,1.8-0.9,3.5-1.3,5.2c0.8,0.3,1.5,0.5,2.2,0.7C31.4,10.3,32.1,8.7,32.9,7z"/><path d="M26.1,10.8c0.1-1.8,0.3-3.5,0.4-5.3c-1.1,0-2.1,0-3.2,0c0.1,1.8,0.3,3.6,0.4,5.3C24.6,10.8,25.3,10.8,26.1,10.8z"/><path d="M39,22.6c1.8-0.3,3.5-0.6,5.3-0.9c-0.3-1-0.5-2-0.8-3.1c-1.8,0.6-3.4,1.2-5.1,1.8C38.7,21.2,38.9,21.9,39,22.6z"/><path d="M20.2,44c1.1,0.2,2.1,0.3,3.1,0.5c0.2-1.9,0.3-3.6,0.4-5.4c-0.8-0.1-1.5-0.2-2.3-0.4C21.1,40.5,20.7,42.2,20.2,44z"/><path d="M11.5,20.4c-1.7-0.6-3.4-1.1-5.1-1.7c-0.3,1-0.5,2-0.8,3.1c1.8,0.3,3.6,0.6,5.3,0.9C11.1,21.9,11.3,21.2,11.5,20.4z"/><path d="M10.7,25.1c-1.8,0-3.6,0-5.4,0c0.1,1.1,0.2,2.1,0.3,3.1c1.8-0.3,3.6-0.6,5.3-0.9C10.8,26.5,10.8,25.8,10.7,25.1z"/><path d="M39.2,25.1c-0.1,0.8-0.1,1.5-0.2,2.2c1.7,0.3,3.5,0.6,5.3,0.9c0.1-1,0.2-2.1,0.3-3.1C42.8,25.1,41,25.1,39.2,25.1z"/><path d="M9.7,34.3c0,0.5,0.4,0.9,0.9,0.9c0.5,0,0.9-0.4,0.9-0.9c0-0.5-0.4-0.9-0.9-0.9C10.1,33.4,9.7,33.8,9.7,34.3z"/><path d="M29.5,25.9c-0.3,0.2-1.7-0.2-1.8-0.4c0-0.1-0.1-0.2,0-0.3c0.1-1.1-0.4-1.9-1.3-2.5c0.1-0.4,0.3-0.7,0.4-1c0.1-0.4,0.3-0.6,0.7-0.7c0.6-0.2,0.9-0.9,0.6-1.6c-0.3-0.6-1-0.9-1.6-0.6c-0.6,0.3-0.9,1-0.6,1.6c0.2,0.4,0.2,0.7,0,1.1c-0.1,0.2-0.2,0.4-0.2,0.6c-0.1,0.3-0.2,0.4-0.5,0.3c-0.8-0.1-1.5,0.2-2,0.8c-0.4,0.5-0.7,0.5-1.1,0.3c-0.1,0-0.2-0.1-0.3-0.1c-0.4-0.1-0.7-0.3-0.8-0.7c-0.2-0.6-1-0.8-1.6-0.6c-0.6,0.3-0.9,1-0.6,1.6c0.3,0.6,1,0.9,1.6,0.6c0.4-0.3,0.7-0.2,1.1,0c0.2,0.1,0.4,0.2,0.6,0.2c0.3,0.1,0.4,0.2,0.3,0.5c-0.1,0.8,0.2,1.6,0.9,2.1c0.4,0.3,0.4,0.6,0.2,1c-0.1,0.1-0.1,0.2-0.1,0.3c-0.1,0.4-0.3,0.7-0.7,0.8c-0.6,0.2-0.8,1-0.6,1.6c0.3,0.6,1,0.9,1.6,0.6c0.6-0.3,0.9-1.1,0.5-1.6c-0.3-0.4-0.2-0.7-0.1-1c0.1-0.2,0.2-0.5,0.3-0.7c0.1-0.3,0.2-0.3,0.5-0.3c0.7,0.1,1.5-0.1,1.9-0.7c0.5-0.6,0.9-0.6,1.5-0.3c0.1,0,0.1,0,0.2,0.1c0.3,0.1,0.5,0.2,0.6,0.6c0.1,0.3,0.4,0.6,0.7,0.7c0.5,0.2,1.1,0,1.4-0.5c0.3-0.5,0.2-1.1-0.2-1.5C30.6,25.6,30,25.6,29.5,25.9zM25,24.1c-0.5,0.1-0.8,0.4-0.9,0.9c0,0.3-0.2,0.5-0.5,0.4c-0.2-0.1-0.4-0.3-0.4-0.5c0-0.8,0.8-1.5,1.7-1.5c0.1,0.1,0.3,0.2,0.3,0.3C25.4,23.8,25.1,24.1,25,24.1z"/></g></svg>