<?xml version="1.0" encoding="UTF-8"?><svg id="Layer_2" xmlns="http://www.w3.org/2000/svg" viewBox="0 0 66.31 40.31"><defs><style>.cls-1{fill-rule:evenodd;}.cls-1,.cls-2{fill:#9f9f9f;}</style></defs><g id="Layer_4"><g id="Football-Cup-Icon"><g><path class="cls-2" d="M39.92,16.18c-1.43-7.65-7.75-14.12-15.36-15.7-.91-.19-1.84-.28-2.76-.42-.1-.02-.2-.04-.31-.07h-2.68c-.88,.13-1.76,.23-2.64,.4C8.54,1.82,2.06,8.15,.48,15.76c-.19,.9-.28,1.81-.41,2.72-.02,.11-.05,.23-.07,.34v2.68c.13,.88,.23,1.76,.39,2.63,1.43,7.65,7.75,14.12,15.36,15.7,.91,.19,1.84,.28,2.76,.42,.1,.02,.2,.04,.31,.07h2.68c.88-.13,1.76-.23,2.64-.4,7.64-1.42,14.11-7.76,15.7-15.36,.19-.9,.28-1.81,.41-2.72,.02-.11,.05-.23,.07-.34v-2.68c-.13-.88-.23-1.76-.39-2.63Zm-7.28,16.39c-1.89,1.97-4.18,3.35-6.76,4.26-.22,.08-.37,.07-.51-.12-.02-.02-.04-.04-.06-.06-.47-.46-.87-1.09-1.43-1.32-.55-.23-1.26-.06-1.91-.06-1.74,0-3.49,0-5.23,0-.27,0-.47,.06-.65,.26-.37,.4-.78,.78-1.16,1.18-.16,.16-.29,.21-.51,.12-6.48-2.48-10.41-7.1-11.67-13.94-.33-1.79-.29-3.6,0-5.4,.04-.24,.13-.33,.35-.38,.96-.21,1.92-.43,2.88-.63,.24-.05,.38-.16,.49-.38,.73-1.49,1.48-2.98,2.21-4.47,.08-.16,.09-.41,.03-.58-.3-.98-.63-1.94-.97-2.91-.09-.25-.07-.42,.14-.61,2.76-2.62,6.02-4.25,9.79-4.8,.83-.12,1.67-.15,2.19-.19,5.07,.09,9.16,1.76,12.6,5.03,.16,.16,.2,.29,.13,.51-.35,.99-.68,1.98-1,2.98-.06,.17-.04,.42,.04,.58,.74,1.51,1.49,3,2.25,4.5,.08,.15,.27,.29,.43,.33,.94,.23,1.89,.44,2.84,.64,.26,.06,.39,.15,.43,.44,.8,5.82-.88,10.83-4.93,15.04Z"/><path class="cls-2" d="M24.07,14.81c.5-1.28,1.02-2.56,1.53-3.83,.29-.71,.57-1.43,.86-2.14-.06-.05-.08-.08-.12-.1-1.99-1.19-3.98-2.39-5.98-3.57-.1-.06-.3-.06-.41,0-.55,.3-1.08,.64-1.62,.96-1.48,.89-2.97,1.78-4.48,2.68,.82,2.05,1.62,4.06,2.44,6.06,.05,.11,.24,.23,.37,.23,2.34,.01,4.67,0,7.01,.02,.26,0,.34-.12,.41-.31Z"/><path class="cls-2" d="M13.61,20.2c-1.93,.37-3.85,.75-5.77,1.16-.13,.03-.31,.2-.33,.34-.39,1.9-.76,3.8-1.15,5.7-.05,.25,0,.37,.22,.5,1.94,1.15,3.87,2.31,5.8,3.47,.08,.05,.16,.08,.2,.1,1.69-1.69,3.36-3.36,5.06-5.05-1.21-2.02-2.42-4.04-3.64-6.06-.06-.09-.26-.17-.37-.15Z"/><path class="cls-2" d="M32.45,21.34c-1.9-.37-3.8-.75-5.7-1.14-.24-.05-.35,0-.47,.21-.47,.8-.95,1.6-1.43,2.39-.73,1.21-1.45,2.42-2.16,3.6,1.69,1.69,3.36,3.36,5.07,5.07,2.01-1.2,4.04-2.42,6.06-3.65,.09-.05,.15-.26,.13-.38-.37-1.92-.76-3.83-1.13-5.74-.05-.23-.15-.32-.38-.36Z"/></g><path class="cls-1" d="M53.54,8.48h-7.91c-.23,.15-.36,.41-.36,.68s.14,.53,.36,.68c0,.35,0,.69-.01,1.02h-4.16c-.38,0-.68,.31-.68,.68v.06c-.02,3.19,.59,5.67,1.83,7.45,.92,1.32,2.18,2.24,3.77,2.76,.64,1.76,1.74,2.06,3.46,2.76,1.75,.7,1.96,2.42,1.78,4.2h-2.02c-.29,0-.53,.24-.53,.53v.23h-1.21c-.28,0-.51,.23-.51,.51l-1,3.5h-.27c-.3,0-.54,.24-.54,.54h0c0,.3,.24,.54,.54,.54h14.92c.3,0,.54-.24,.54-.54h0c0-.3-.24-.54-.54-.54h-.27l-1-3.5c0-.28-.23-.51-.51-.51h-1.21v-.23c0-.29-.24-.53-.53-.53h-2.02c-.19-1.78,.03-3.5,1.78-4.2,1.72-.69,2.82-.99,3.46-2.76,1.59-.52,2.85-1.44,3.77-2.76,1.25-1.78,1.86-4.26,1.83-7.45v-.06c0-.38-.3-.68-.68-.68h-4.16c0-.33,0-.67-.01-1.02,.23-.15,.36-.41,.36-.68s-.14-.53-.36-.68h-7.91Zm-7.93,3.75c-.01,3.78,.09,6.26,.37,7.94-.92-.45-1.67-1.08-2.25-1.91-1-1.43-1.53-3.44-1.58-6.03h3.47Zm15.86,0h3.47c-.05,2.59-.58,4.6-1.58,6.03-.58,.83-1.33,1.46-2.25,1.91,.27-1.68,.38-4.16,.37-7.94Z"/></g></g></svg>